<?xml version="1.0" encoding="UTF-8" standalone="no"?>
<svg
   xmlns:dc="http://purl.org/dc/elements/1.1/"
   xmlns:cc="http://creativecommons.org/ns#"
   xmlns:rdf="http://www.w3.org/1999/02/22-rdf-syntax-ns#"
   xmlns:svg="http://www.w3.org/2000/svg"
   xmlns="http://www.w3.org/2000/svg"
   xmlns:sodipodi="http://sodipodi.sourceforge.net/DTD/sodipodi-0.dtd"
   xmlns:inkscape="http://www.inkscape.org/namespaces/inkscape"
   width="250"
   height="250"
   viewBox="0 0 250 250"
   version="1.1"
   id="svg869"
   inkscape:version="1.1-dev (36e1d04, 2020-03-13)"
   sodipodi:docname="hrnis5.svg">
  <defs
     id="defs863" />
  <sodipodi:namedview
     id="base"
     pagecolor="#ffffff"
     bordercolor="#ff00ff"
     borderopacity="1"
     inkscape:pageopacity="0.0"
     inkscape:pageshadow="2"
     inkscape:zoom="2.49"
     inkscape:cx="65.768439"
     inkscape:cy="124.06342"
     inkscape:document-units="px"
     inkscape:current-layer="layer3"
     showgrid="false"
     units="px"
     borderlayer="true"
     inkscape:showpageshadow="false"
     inkscape:pagecheckerboard="true"
     inkscape:window-width="1920"
     inkscape:window-height="1027"
     inkscape:window-x="-8"
     inkscape:window-y="22"
     inkscape:window-maximized="1" />
  <metadata
     id="metadata866">
    <rdf:RDF>
      <cc:Work
         rdf:about="">
        <dc:format>image/svg+xml</dc:format>
        <dc:type
           rdf:resource="http://purl.org/dc/dcmitype/StillImage" />
        <dc:title></dc:title>
      </cc:Work>
    </rdf:RDF>
  </metadata>
  <g
     sodipodi:insensitive="true"
     style="display:inline"
     inkscape:label="Layer 1"
     inkscape:groupmode="layer"
     id="layer1">
    <rect
       style="display:inline;opacity:1;fill:#ffffff;fill-opacity:1;stroke:none;stroke-width:0.263999;stroke-miterlimit:4;stroke-dasharray:1.584, 1.584;stroke-dashoffset:0.528004"
       id="rect848"
       width="250"
       height="250"
       x="0"
       y="0"
       ry="12"
       rx="12" />
    <path
       id="rect953"
       style="display:inline;opacity:1;fill:#4d7496;fill-opacity:1;stroke:none;stroke-width:0.997795;stroke-miterlimit:4;stroke-dasharray:5.98677, 5.98677;stroke-dashoffset:1.9956"
       d="m 16.999998,4.9999972 c -6.648,0 -11.9999975,5.3519998 -11.9999975,11.9999998 V 233 c 0,6.648 5.3519975,12 11.9999975,12 H 233 c 6.648,0 12,-5.352 12,-12 V 16.999997 c 0,-6.648 -5.352,-11.9999998 -12,-11.9999998 z m 6.000003,9.9999998 H 227 c 4.432,0 8,3.568 8,8.000001 V 227 c 0,4.432 -3.568,8 -8,8 H 23.000001 c -4.432,0 -8.000003,-3.568 -8.000003,-8 V 22.999998 c 0,-4.432001 3.568003,-8.000001 8.000003,-8.000001 z" />
  </g>
  <g
     sodipodi:insensitive="true"
     style="display:inline"
     inkscape:groupmode="layer"
     id="layer3"
     inkscape:label="Layer 3">
    <path
       d="m 26,50 v 150 h 40 2 V 145 A 17,17 0 0 1 85,128 17,17 0 0 1 101.63672,141.52539 24.642857,24.642857 0 0 0 123.5,155.14258 24.642857,24.642857 0 0 0 145.38867,141.47461 17,17 0 0 1 162,128 a 17,17 0 0 1 17,17 v 55 h 7 0.5 37.5 V 162.5 162 h -0.0117 A 37.5,37.5 0 0 0 186.5,125 37.5,37.5 0 0 0 186,125.0352 v -0.0703 A 37.5,37.5 0 0 0 186.5,125 37.5,37.5 0 0 0 224,87.5 37.5,37.5 0 0 0 186.5,50 37.5,37.5 0 0 0 186,50.035156 V 50 h -80 -4 v 46 h -0.0977 A 17,17 0 0 1 85,112 17,17 0 0 1 68.097656,96 H 68 V 50 h -2 z m 136,28 a 17,17 0 0 1 17,17 17,17 0 0 1 -17,17 17,17 0 0 1 -17,-17 17,17 0 0 1 17,-17 z m -60,79.37305 V 200 h 4 39 V 157.37305 A 34.5,34.5 0 0 1 123.5,165 34.5,34.5 0 0 1 102,157.37305 Z"
       style="fill:#4d7496;fill-opacity:1;stroke-miterlimit:100;stroke-dashoffset:1.9956;paint-order:markers stroke fill"
       id="rect857" />
    <path
       d="M 85,75 A 20,20 0 0 0 65,95 20,20 0 0 0 85,115 20,20 0 0 0 105,95 20,20 0 0 0 85,75 Z m 0,3 A 17,17 0 0 1 102,95 17,17 0 0 1 85,112 17,17 0 0 1 68,95 17,17 0 0 1 85,78 Z"
       style="fill:#4d7496;fill-opacity:1;stroke-width:0.999995;stroke-miterlimit:100;stroke-dashoffset:1.9956;paint-order:markers stroke fill"
       id="circle911" />
  </g>
</svg>
